<mxfile host="app.diagrams.net" modified="2023-11-24T23:28:56.546Z" agent="Mozilla/5.0 (Windows NT 10.0; Win64; x64) AppleWebKit/537.36 (KHTML, like Gecko) Chrome/116.0.5845.686 YaBrowser/23.9.5.686 Yowser/2.5 Safari/537.36" etag="ea-WhIn4wZiDK0cKvzK-" version="22.1.4" type="github">
  <diagram name="Страница — 1" id="IxeVf5hggV55n6sdxaTZ">
    <mxGraphModel dx="906" dy="671" grid="1" gridSize="10" guides="1" tooltips="1" connect="1" arrows="1" fold="1" page="1" pageScale="1" pageWidth="827" pageHeight="1169" math="0" shadow="0">
      <root>
        <mxCell id="0" />
        <mxCell id="1" parent="0" />
        <mxCell id="Wkc2mbcOwN1bskoPGAZ8-24" value="Пользователь" style="shape=umlActor;verticalLabelPosition=bottom;verticalAlign=top;html=1;outlineConnect=0;" vertex="1" parent="1">
          <mxGeometry x="100" y="180" width="30" height="60" as="geometry" />
        </mxCell>
        <mxCell id="Wkc2mbcOwN1bskoPGAZ8-25" value="Шеф-повар&lt;br&gt;" style="shape=umlActor;verticalLabelPosition=bottom;verticalAlign=top;html=1;outlineConnect=0;" vertex="1" parent="1">
          <mxGeometry x="650" y="40" width="30" height="60" as="geometry" />
        </mxCell>
        <mxCell id="Wkc2mbcOwN1bskoPGAZ8-39" value="Администрация" style="shape=umlActor;verticalLabelPosition=bottom;verticalAlign=top;html=1;outlineConnect=0;" vertex="1" parent="1">
          <mxGeometry x="650" y="400" width="30" height="60" as="geometry" />
        </mxCell>
        <mxCell id="Wkc2mbcOwN1bskoPGAZ8-40" value="Изменить меню&amp;nbsp;" style="ellipse;whiteSpace=wrap;html=1;" vertex="1" parent="1">
          <mxGeometry x="625" y="220" width="80" height="50" as="geometry" />
        </mxCell>
        <mxCell id="Wkc2mbcOwN1bskoPGAZ8-42" value="Заказать блюдо" style="ellipse;whiteSpace=wrap;html=1;" vertex="1" parent="1">
          <mxGeometry x="200" y="185" width="80" height="50" as="geometry" />
        </mxCell>
        <mxCell id="Wkc2mbcOwN1bskoPGAZ8-44" value="" style="endArrow=none;html=1;rounded=0;entryX=0.5;entryY=0.5;entryDx=0;entryDy=0;entryPerimeter=0;" edge="1" parent="1" source="Wkc2mbcOwN1bskoPGAZ8-40" target="Wkc2mbcOwN1bskoPGAZ8-25">
          <mxGeometry width="50" height="50" relative="1" as="geometry">
            <mxPoint x="280" y="360" as="sourcePoint" />
            <mxPoint x="330" y="310" as="targetPoint" />
          </mxGeometry>
        </mxCell>
        <mxCell id="Wkc2mbcOwN1bskoPGAZ8-45" value="" style="endArrow=none;html=1;rounded=0;" edge="1" parent="1" source="Wkc2mbcOwN1bskoPGAZ8-40" target="Wkc2mbcOwN1bskoPGAZ8-39">
          <mxGeometry width="50" height="50" relative="1" as="geometry">
            <mxPoint x="280" y="360" as="sourcePoint" />
            <mxPoint x="330" y="310" as="targetPoint" />
          </mxGeometry>
        </mxCell>
        <mxCell id="Wkc2mbcOwN1bskoPGAZ8-46" value="" style="endArrow=none;html=1;rounded=0;exitX=0.5;exitY=0.5;exitDx=0;exitDy=0;exitPerimeter=0;" edge="1" parent="1" source="Wkc2mbcOwN1bskoPGAZ8-24" target="Wkc2mbcOwN1bskoPGAZ8-42">
          <mxGeometry width="50" height="50" relative="1" as="geometry">
            <mxPoint x="440" y="370" as="sourcePoint" />
            <mxPoint x="490" y="320" as="targetPoint" />
          </mxGeometry>
        </mxCell>
        <mxCell id="Wkc2mbcOwN1bskoPGAZ8-48" value="Подозвать официанта" style="ellipse;whiteSpace=wrap;html=1;" vertex="1" parent="1">
          <mxGeometry x="130" y="360" width="80" height="50" as="geometry" />
        </mxCell>
        <mxCell id="Wkc2mbcOwN1bskoPGAZ8-49" value="Отредактировать&lt;br&gt;порядок выноса блюд" style="ellipse;whiteSpace=wrap;html=1;" vertex="1" parent="1">
          <mxGeometry x="340" y="90" width="150" height="70" as="geometry" />
        </mxCell>
        <mxCell id="Wkc2mbcOwN1bskoPGAZ8-50" value="Оплатить заказ" style="ellipse;whiteSpace=wrap;html=1;" vertex="1" parent="1">
          <mxGeometry x="310" y="270" width="80" height="50" as="geometry" />
        </mxCell>
        <mxCell id="Wkc2mbcOwN1bskoPGAZ8-51" value="По QR-коду" style="ellipse;whiteSpace=wrap;html=1;" vertex="1" parent="1">
          <mxGeometry x="455" y="185" width="80" height="50" as="geometry" />
        </mxCell>
        <mxCell id="Wkc2mbcOwN1bskoPGAZ8-52" value="Введя данные карты" style="ellipse;whiteSpace=wrap;html=1;" vertex="1" parent="1">
          <mxGeometry x="450" y="290" width="110" height="50" as="geometry" />
        </mxCell>
        <mxCell id="Wkc2mbcOwN1bskoPGAZ8-53" value="Дать чаевые" style="ellipse;whiteSpace=wrap;html=1;" vertex="1" parent="1">
          <mxGeometry x="305" y="520" width="90" height="60" as="geometry" />
        </mxCell>
        <mxCell id="Wkc2mbcOwN1bskoPGAZ8-54" value="Разделить оплату с другим человеком" style="ellipse;whiteSpace=wrap;html=1;" vertex="1" parent="1">
          <mxGeometry x="404" y="390" width="140" height="70" as="geometry" />
        </mxCell>
        <mxCell id="Wkc2mbcOwN1bskoPGAZ8-55" value="Оценить работу персонала и качество блюд" style="ellipse;whiteSpace=wrap;html=1;" vertex="1" parent="1">
          <mxGeometry x="30" y="547" width="150" height="75" as="geometry" />
        </mxCell>
        <mxCell id="Wkc2mbcOwN1bskoPGAZ8-56" value="Выгрузить информацию о составе заказа, данной оценке и тп" style="ellipse;whiteSpace=wrap;html=1;" vertex="1" parent="1">
          <mxGeometry x="560" y="550" width="210" height="80" as="geometry" />
        </mxCell>
        <mxCell id="Wkc2mbcOwN1bskoPGAZ8-57" value="" style="endArrow=none;html=1;rounded=0;entryX=0.5;entryY=0.5;entryDx=0;entryDy=0;entryPerimeter=0;" edge="1" parent="1" source="Wkc2mbcOwN1bskoPGAZ8-56" target="Wkc2mbcOwN1bskoPGAZ8-39">
          <mxGeometry width="50" height="50" relative="1" as="geometry">
            <mxPoint x="495" y="410" as="sourcePoint" />
            <mxPoint x="545" y="360" as="targetPoint" />
          </mxGeometry>
        </mxCell>
        <mxCell id="Wkc2mbcOwN1bskoPGAZ8-58" value="" style="endArrow=none;html=1;rounded=0;entryX=0.5;entryY=0.5;entryDx=0;entryDy=0;entryPerimeter=0;" edge="1" parent="1" source="Wkc2mbcOwN1bskoPGAZ8-48" target="Wkc2mbcOwN1bskoPGAZ8-24">
          <mxGeometry width="50" height="50" relative="1" as="geometry">
            <mxPoint x="440" y="370" as="sourcePoint" />
            <mxPoint x="120" y="260" as="targetPoint" />
          </mxGeometry>
        </mxCell>
        <mxCell id="Wkc2mbcOwN1bskoPGAZ8-59" value="" style="endArrow=classic;html=1;rounded=0;" edge="1" parent="1" source="Wkc2mbcOwN1bskoPGAZ8-49" target="Wkc2mbcOwN1bskoPGAZ8-42">
          <mxGeometry relative="1" as="geometry">
            <mxPoint x="420" y="350" as="sourcePoint" />
            <mxPoint x="250" y="320" as="targetPoint" />
          </mxGeometry>
        </mxCell>
        <mxCell id="Wkc2mbcOwN1bskoPGAZ8-61" value="вкл" style="edgeLabel;html=1;align=center;verticalAlign=middle;resizable=0;points=[];" vertex="1" connectable="0" parent="Wkc2mbcOwN1bskoPGAZ8-59">
          <mxGeometry y="2" relative="1" as="geometry">
            <mxPoint as="offset" />
          </mxGeometry>
        </mxCell>
        <mxCell id="Wkc2mbcOwN1bskoPGAZ8-63" value="" style="endArrow=classic;html=1;rounded=0;exitX=0;exitY=0;exitDx=0;exitDy=0;" edge="1" parent="1" source="Wkc2mbcOwN1bskoPGAZ8-50" target="Wkc2mbcOwN1bskoPGAZ8-42">
          <mxGeometry relative="1" as="geometry">
            <mxPoint x="340" y="290" as="sourcePoint" />
            <mxPoint x="520" y="350" as="targetPoint" />
          </mxGeometry>
        </mxCell>
        <mxCell id="Wkc2mbcOwN1bskoPGAZ8-64" value="вкл" style="edgeLabel;resizable=0;html=1;align=center;verticalAlign=middle;" connectable="0" vertex="1" parent="Wkc2mbcOwN1bskoPGAZ8-63">
          <mxGeometry relative="1" as="geometry" />
        </mxCell>
        <mxCell id="Wkc2mbcOwN1bskoPGAZ8-65" value="" style="endArrow=none;html=1;rounded=0;entryX=0.5;entryY=0.5;entryDx=0;entryDy=0;entryPerimeter=0;" edge="1" parent="1" source="Wkc2mbcOwN1bskoPGAZ8-53" target="Wkc2mbcOwN1bskoPGAZ8-24">
          <mxGeometry width="50" height="50" relative="1" as="geometry">
            <mxPoint x="440" y="370" as="sourcePoint" />
            <mxPoint x="490" y="320" as="targetPoint" />
          </mxGeometry>
        </mxCell>
        <mxCell id="Wkc2mbcOwN1bskoPGAZ8-72" value="" style="endArrow=classic;html=1;rounded=0;exitX=0.5;exitY=0;exitDx=0;exitDy=0;entryX=0.5;entryY=1;entryDx=0;entryDy=0;" edge="1" parent="1" source="Wkc2mbcOwN1bskoPGAZ8-53" target="Wkc2mbcOwN1bskoPGAZ8-50">
          <mxGeometry relative="1" as="geometry">
            <mxPoint x="420" y="350" as="sourcePoint" />
            <mxPoint x="520" y="350" as="targetPoint" />
          </mxGeometry>
        </mxCell>
        <mxCell id="Wkc2mbcOwN1bskoPGAZ8-77" value="расш" style="edgeLabel;html=1;align=center;verticalAlign=middle;resizable=0;points=[];" vertex="1" connectable="0" parent="Wkc2mbcOwN1bskoPGAZ8-72">
          <mxGeometry x="-0.0859" y="-1" relative="1" as="geometry">
            <mxPoint as="offset" />
          </mxGeometry>
        </mxCell>
        <mxCell id="Wkc2mbcOwN1bskoPGAZ8-78" value="" style="endArrow=classic;html=1;rounded=0;entryX=1;entryY=0;entryDx=0;entryDy=0;exitX=0;exitY=1;exitDx=0;exitDy=0;" edge="1" parent="1" source="Wkc2mbcOwN1bskoPGAZ8-51" target="Wkc2mbcOwN1bskoPGAZ8-50">
          <mxGeometry width="50" height="50" relative="1" as="geometry">
            <mxPoint x="440" y="370" as="sourcePoint" />
            <mxPoint x="490" y="320" as="targetPoint" />
          </mxGeometry>
        </mxCell>
        <mxCell id="Wkc2mbcOwN1bskoPGAZ8-79" value="" style="endArrow=classic;html=1;rounded=0;entryX=1.017;entryY=0.64;entryDx=0;entryDy=0;entryPerimeter=0;exitX=0;exitY=0.5;exitDx=0;exitDy=0;" edge="1" parent="1" source="Wkc2mbcOwN1bskoPGAZ8-52" target="Wkc2mbcOwN1bskoPGAZ8-50">
          <mxGeometry width="50" height="50" relative="1" as="geometry">
            <mxPoint x="440" y="370" as="sourcePoint" />
            <mxPoint x="490" y="320" as="targetPoint" />
          </mxGeometry>
        </mxCell>
        <mxCell id="Wkc2mbcOwN1bskoPGAZ8-80" value="" style="endArrow=none;html=1;rounded=0;exitX=0.5;exitY=0;exitDx=0;exitDy=0;entryX=0.5;entryY=0.5;entryDx=0;entryDy=0;entryPerimeter=0;" edge="1" parent="1" source="Wkc2mbcOwN1bskoPGAZ8-55" target="Wkc2mbcOwN1bskoPGAZ8-24">
          <mxGeometry width="50" height="50" relative="1" as="geometry">
            <mxPoint x="440" y="370" as="sourcePoint" />
            <mxPoint x="490" y="320" as="targetPoint" />
          </mxGeometry>
        </mxCell>
        <mxCell id="Wkc2mbcOwN1bskoPGAZ8-81" value="" style="endArrow=classic;html=1;rounded=0;exitX=0.5;exitY=0;exitDx=0;exitDy=0;entryX=0;entryY=1;entryDx=0;entryDy=0;" edge="1" parent="1" source="Wkc2mbcOwN1bskoPGAZ8-55" target="Wkc2mbcOwN1bskoPGAZ8-50">
          <mxGeometry relative="1" as="geometry">
            <mxPoint x="390" y="350" as="sourcePoint" />
            <mxPoint x="550" y="350" as="targetPoint" />
          </mxGeometry>
        </mxCell>
        <mxCell id="Wkc2mbcOwN1bskoPGAZ8-82" value="расш" style="edgeLabel;resizable=0;html=1;align=center;verticalAlign=middle;" connectable="0" vertex="1" parent="Wkc2mbcOwN1bskoPGAZ8-81">
          <mxGeometry relative="1" as="geometry" />
        </mxCell>
        <mxCell id="Wkc2mbcOwN1bskoPGAZ8-84" value="" style="endArrow=classic;html=1;rounded=0;exitX=0.5;exitY=0;exitDx=0;exitDy=0;entryX=1;entryY=1;entryDx=0;entryDy=0;" edge="1" parent="1" source="Wkc2mbcOwN1bskoPGAZ8-54" target="Wkc2mbcOwN1bskoPGAZ8-50">
          <mxGeometry relative="1" as="geometry">
            <mxPoint x="420" y="350" as="sourcePoint" />
            <mxPoint x="520" y="350" as="targetPoint" />
          </mxGeometry>
        </mxCell>
        <mxCell id="Wkc2mbcOwN1bskoPGAZ8-85" value="расш" style="edgeLabel;resizable=0;html=1;align=center;verticalAlign=middle;" connectable="0" vertex="1" parent="Wkc2mbcOwN1bskoPGAZ8-84">
          <mxGeometry relative="1" as="geometry" />
        </mxCell>
        <mxCell id="Wkc2mbcOwN1bskoPGAZ8-87" value="Use-case диаграмма&amp;nbsp;мобильного приложения под Android и iOS для сети ресторанов «Пельмеши»" style="text;html=1;strokeColor=none;fillColor=none;align=center;verticalAlign=middle;whiteSpace=wrap;rounded=0;" vertex="1" parent="1">
          <mxGeometry x="100" y="20" width="390" height="50" as="geometry" />
        </mxCell>
      </root>
    </mxGraphModel>
  </diagram>
</mxfile>
